<?xml version="1.0" encoding="utf-8"?>
<!-- Generator: Adobe Illustrator 16.0.0, SVG Export Plug-In . SVG Version: 6.00 Build 0)  -->
<!DOCTYPE svg PUBLIC "-//W3C//DTD SVG 1.1//EN" "http://www.w3.org/Graphics/SVG/1.1/DTD/svg11.dtd">
<svg version="1.1" id="Layer_1" xmlns="http://www.w3.org/2000/svg" xmlns:xlink="http://www.w3.org/1999/xlink" x="0px" y="0px"
	 width="1224.281px" height="841.89px" viewBox="0 0 1224.281 841.89" enable-background="new 0 0 1224.281 841.89"
	 xml:space="preserve">
<polygon fill="#FFFAD5" points="1224.256,841.906 0,841.888 0,0 1224.533,0.017 "/>
<g>
	<polygon fill="#105B63" points="673.698,330.991 602.974,-0.363 1224.533,-0.363 1224.537,213.4 	"/>
	<polygon fill="#105B63" points="-0.309,473.902 0,0 480.968,0 558.113,355.941 	"/>
</g>
<path fill="#B2AE96" d="M562.924,378.538l-4.821-22.592L-0.242,474.271l0.618,47.643l544.778-115.96
	C557.631,403.288,565.588,391.015,562.924,378.538z"/>
<path fill="#B2AE96" d="M1225.021,213.4l-551.31,117.591l4.821,22.591c2.664,12.478,14.938,20.433,27.414,17.77l519.065-110.851
	L1225.021,213.4z"/>
<polygon fill="#105B63" points="764.336,841.89 679.652,841.906 500.082,0 584.613,0 "/>
<g>
	
		<rect x="547.81" y="22.916" transform="matrix(0.978 -0.2086 0.2086 0.978 4.5341 115.5754)" fill="#FFFAD5" width="4.596" height="26.759"/>
	
		<rect x="558.258" y="71.866" transform="matrix(0.978 -0.2088 0.2088 0.978 -5.4453 118.9003)" fill="#FFFAD5" width="4.598" height="26.762"/>
	
		<rect x="568.708" y="120.795" transform="matrix(0.978 -0.2086 0.2086 0.978 -15.4271 122.0548)" fill="#FFFAD5" width="4.595" height="26.759"/>
	
		<rect x="579.142" y="169.766" transform="matrix(0.9779 -0.2091 0.2091 0.9779 -25.4432 125.6332)" fill="#FFFAD5" width="4.598" height="26.761"/>
	
		<rect x="589.604" y="218.725" transform="matrix(0.978 -0.2086 0.2086 0.978 -35.3912 128.5497)" fill="#FFFAD5" width="4.598" height="26.759"/>
	
		<rect x="600.099" y="267.696" transform="matrix(0.9779 -0.2089 0.2089 0.9779 -45.427 132.0458)" fill="#FFFAD5" width="4.598" height="26.761"/>
	
		<rect x="610.5" y="316.629" transform="matrix(0.978 -0.2086 0.2086 0.978 -55.3589 135.09)" fill="#FFFAD5" width="4.597" height="26.759"/>
	
		<rect x="620.948" y="365.581" transform="matrix(0.9779 -0.209 0.209 0.9779 -65.4297 138.6019)" fill="#FFFAD5" width="4.599" height="26.758"/>
	
		<rect x="631.396" y="414.532" transform="matrix(0.9779 -0.209 0.209 0.9779 -75.4409 141.8973)" fill="#FFFAD5" width="4.598" height="26.761"/>
	
		<rect x="641.847" y="463.483" transform="matrix(0.978 -0.2086 0.2086 0.978 -85.3035 144.8596)" fill="#FFFAD5" width="4.597" height="26.761"/>
	
		<rect x="652.295" y="512.437" transform="matrix(0.978 -0.2086 0.2086 0.978 -95.2852 148.1161)" fill="#FFFAD5" width="4.597" height="26.761"/>
	
		<rect x="662.743" y="561.39" transform="matrix(0.978 -0.2086 0.2086 0.978 -105.2668 151.3724)" fill="#FFFAD5" width="4.597" height="26.758"/>
	
		<rect x="673.203" y="610.345" transform="matrix(0.9779 -0.2089 0.2089 0.9779 -115.4022 154.8901)" fill="#FFFAD5" width="4.6" height="26.761"/>
	
		<rect x="683.64" y="659.296" transform="matrix(0.9779 -0.209 0.209 0.9779 -125.4438 158.2224)" fill="#FFFAD5" width="4.598" height="26.755"/>
	
		<rect x="694.088" y="708.245" transform="matrix(0.978 -0.2086 0.2086 0.978 -135.2114 161.1418)" fill="#FFFAD5" width="4.597" height="26.758"/>
	
		<rect x="704.536" y="757.196" transform="matrix(0.9779 -0.209 0.209 0.9779 -145.4178 164.7145)" fill="#FFFAD5" width="4.599" height="26.761"/>
	
		<rect x="714.985" y="806.15" transform="matrix(0.978 -0.2086 0.2086 0.978 -155.1747 167.6547)" fill="#FFFAD5" width="4.597" height="26.761"/>
</g>
<g>
	<path fill="#FFFAD5" d="M487.422,345.827c-20.243,3.932-39.911-9.342-43.845-29.584c-3.931-20.244,9.344-39.912,29.584-43.842
		c20.244-3.931,39.911,9.341,43.845,29.584C520.935,322.229,507.663,341.896,487.422,345.827z M473.537,274.334
		c-19.177,3.724-31.75,22.354-28.023,41.534c3.723,19.177,22.354,31.749,41.533,28.025c19.177-3.725,31.75-22.355,28.024-41.534
		C511.347,283.183,492.716,270.61,473.537,274.334z"/>
	<polygon fill="#FFFAD5" points="494.694,288.647 493.88,288.097 480.158,308.431 459.825,294.71 459.274,295.525 479.606,309.247 
		465.888,329.579 466.703,330.131 480.425,309.797 500.759,323.519 501.307,322.702 480.976,308.981 	"/>
	<g>
		<g enable-background="new    ">
			<path fill="#FFFAD5" d="M480.542,293.229l-4.135,0.803l0.768,3.951l-1.021,0.199l-1.673-8.615l1.021-0.199l0.729,3.754
				l4.135-0.803l-0.729-3.754l1.021-0.199l1.673,8.615l-1.021,0.199L480.542,293.229z"/>
		</g>
	</g>
	<g>
		<g enable-background="new    ">
			<path fill="#FFFAD5" d="M465.687,309c0.04,0.205,0.048,0.421,0.023,0.647c-0.024,0.227-0.084,0.444-0.181,0.654
				c-0.096,0.21-0.231,0.405-0.409,0.584c-0.179,0.181-0.399,0.333-0.665,0.461l0.011,0.049c0.254-0.007,0.504,0.018,0.748,0.072
				c0.245,0.055,0.471,0.152,0.676,0.291c0.206,0.139,0.387,0.321,0.541,0.546c0.154,0.225,0.264,0.506,0.329,0.843
				c0.086,0.442,0.067,0.845-0.055,1.205c-0.12,0.359-0.312,0.67-0.57,0.934c-0.262,0.265-0.573,0.482-0.939,0.656
				c-0.367,0.172-0.751,0.299-1.151,0.376c-0.142,0.027-0.306,0.06-0.492,0.096c-0.189,0.037-0.389,0.068-0.596,0.095
				c-0.208,0.029-0.417,0.051-0.626,0.071c-0.209,0.021-0.396,0.024-0.559,0.014l-1.646-8.48c0.294-0.108,0.639-0.218,1.034-0.329
				c0.396-0.11,0.83-0.212,1.308-0.304c0.319-0.062,0.65-0.099,0.994-0.11c0.343-0.011,0.664,0.033,0.965,0.132
				c0.3,0.099,0.563,0.268,0.793,0.503C465.449,308.243,465.604,308.574,465.687,309z M462.51,311.508
				c0.14-0.027,0.308-0.064,0.503-0.11c0.193-0.047,0.355-0.091,0.483-0.133c0.186-0.104,0.354-0.22,0.509-0.347
				c0.152-0.129,0.285-0.269,0.396-0.423c0.109-0.153,0.188-0.322,0.232-0.505c0.046-0.183,0.05-0.374,0.012-0.57
				c-0.053-0.271-0.147-0.485-0.284-0.641c-0.137-0.157-0.302-0.271-0.495-0.345c-0.191-0.073-0.403-0.111-0.635-0.113
				c-0.229-0.002-0.46,0.019-0.689,0.063c-0.271,0.053-0.519,0.106-0.741,0.163c-0.224,0.057-0.391,0.108-0.499,0.155l0.567,2.929
				L462.51,311.508z M463.969,315.414c0.263-0.051,0.511-0.132,0.745-0.24c0.233-0.109,0.433-0.25,0.595-0.422
				c0.162-0.171,0.28-0.368,0.353-0.585c0.073-0.218,0.083-0.463,0.03-0.734c-0.064-0.336-0.186-0.593-0.36-0.772
				c-0.176-0.179-0.384-0.305-0.622-0.378c-0.24-0.073-0.499-0.103-0.777-0.092c-0.279,0.013-0.554,0.045-0.825,0.098l-1.07,0.208
				l0.601,3.089c0.061,0.005,0.146,0.002,0.254-0.011c0.106-0.012,0.225-0.026,0.349-0.042c0.125-0.016,0.254-0.034,0.386-0.056
				C463.757,315.453,463.871,315.432,463.969,315.414z"/>
		</g>
	</g>
	<g>
		<g enable-background="new    ">
			<path fill="#FFFAD5" d="M498.402,305.086l2.894-0.562l0.735,3.791c-0.111,0.124-0.253,0.246-0.422,0.363
				c-0.169,0.119-0.352,0.226-0.55,0.323c-0.198,0.099-0.407,0.184-0.627,0.257c-0.221,0.072-0.438,0.129-0.65,0.171
				c-0.55,0.106-1.07,0.117-1.564,0.029s-0.944-0.28-1.353-0.58c-0.407-0.3-0.76-0.714-1.058-1.238
				c-0.298-0.525-0.521-1.169-0.669-1.933c-0.154-0.796-0.172-1.5-0.052-2.111c0.118-0.61,0.329-1.129,0.629-1.558
				c0.301-0.428,0.664-0.77,1.092-1.022c0.428-0.253,0.871-0.426,1.331-0.515c0.492-0.096,0.903-0.147,1.232-0.156
				c0.331-0.009,0.615,0.009,0.854,0.057l-0.081,0.96c-0.433-0.12-1.015-0.109-1.744,0.033c-0.345,0.067-0.676,0.193-0.993,0.378
				c-0.316,0.185-0.585,0.444-0.801,0.774c-0.217,0.332-0.367,0.74-0.452,1.225s-0.062,1.06,0.066,1.725
				c0.118,0.607,0.289,1.119,0.515,1.534c0.227,0.417,0.49,0.746,0.797,0.988c0.307,0.243,0.649,0.402,1.028,0.478
				c0.38,0.075,0.778,0.072,1.195-0.009c0.522-0.102,0.948-0.291,1.276-0.567l-0.465-2.399l-2.055,0.143L498.402,305.086z"/>
		</g>
	</g>
	<path fill="#FFFAD5" d="M490.64,327.825l-1.466,1.015c-0.08,0.058-0.069,0.127,0.023,0.153l0.731,0.209
		c-0.443,0.652-1.071,1.286-1.854,1.814c-2.125,1.443-3.471,1.165-3.766-0.354c-0.154-0.798-0.689-3.555-1.09-5.614l3.207-0.918
		c0.078-0.026,0.128-0.114,0.11-0.195l-0.055-0.278c-0.015-0.08-0.095-0.144-0.177-0.14l-3.317,0.35
		c-0.084-0.435-0.149-0.781-0.19-0.991c0.574-0.356,0.898-1.042,0.765-1.746c-0.177-0.91-1.059-1.504-1.967-1.327
		c-0.91,0.177-1.505,1.058-1.328,1.968c0.137,0.703,0.694,1.217,1.362,1.332c0.041,0.211,0.106,0.558,0.189,0.991l-3.206,0.917
		c-0.077,0.027-0.129,0.116-0.11,0.196l0.053,0.278c0.017,0.08,0.098,0.144,0.18,0.14l3.316-0.349
		c0.397,2.058,0.935,4.815,1.09,5.613c0.295,1.518-0.848,2.281-3.359,1.738c-0.922-0.199-1.743-0.551-2.397-0.989l0.602-0.468
		c0.078-0.061,0.062-0.13-0.034-0.152l-1.737-0.393c-0.099-0.021-0.161,0.041-0.144,0.139l0.361,1.865
		c0.02,0.098,0.08,0.109,0.137,0.026l0.339-0.514c2.159,1.343,4.778,2.423,7.686,3.083c2.445-1.7,4.472-3.681,5.97-5.734l0.509,0.35
		c0.082,0.055,0.134,0.021,0.115-0.076l-0.361-1.863C490.805,327.802,490.722,327.769,490.64,327.825z M481.052,321.618
		c-0.095-0.479,0.221-0.943,0.697-1.035c0.479-0.094,0.941,0.22,1.035,0.698c0.095,0.479-0.221,0.942-0.697,1.035
		C481.607,322.409,481.144,322.097,481.052,321.618z"/>
</g>
<g enable-background="new    ">
	<path fill="#B2AE96" d="M406.699,469.121l-4.076,0.889l1.378,6.316l-2.689,0.586l-3.255-14.938l2.688-0.586l1.34,6.146l4.074-0.889
		l-1.339-6.146l2.689-0.586l3.255,14.938l-2.689,0.588L406.699,469.121z"/>
	<path fill="#B2AE96" d="M413.569,458.593l2.689-0.586l3.255,14.938l-2.689,0.586L413.569,458.593z"/>
	<path fill="#B2AE96" d="M422.351,456.835c0.487-0.225,1.03-0.436,1.628-0.635c0.598-0.195,1.203-0.361,1.814-0.494
		c0.653-0.145,1.312-0.223,1.971-0.24c0.658-0.016,1.275,0.1,1.853,0.346c0.574,0.246,1.09,0.66,1.544,1.238
		c0.454,0.58,0.794,1.389,1.021,2.428c0.205,0.939,0.247,1.766,0.127,2.477c-0.121,0.711-0.356,1.322-0.708,1.832
		c-0.353,0.508-0.794,0.918-1.33,1.227c-0.536,0.312-1.11,0.533-1.722,0.668c-0.059,0.014-0.149,0.031-0.277,0.061
		s-0.265,0.055-0.408,0.076c-0.144,0.023-0.284,0.045-0.423,0.061c-0.138,0.016-0.238,0.021-0.297,0.02l1.12,5.143l-2.688,0.586
		L422.351,456.835z M426.617,463.484c0.091,0.012,0.257,0,0.496-0.029s0.401-0.053,0.487-0.072c0.312-0.066,0.602-0.176,0.868-0.322
		c0.266-0.146,0.485-0.35,0.662-0.604c0.176-0.254,0.288-0.576,0.337-0.967c0.049-0.393,0.013-0.863-0.108-1.42
		c-0.103-0.469-0.249-0.854-0.44-1.154c-0.192-0.299-0.412-0.525-0.66-0.674c-0.248-0.146-0.518-0.232-0.807-0.26
		c-0.289-0.025-0.583-0.008-0.882,0.059c-0.44,0.096-0.796,0.213-1.063,0.344L426.617,463.484z"/>
	<path fill="#B2AE96" d="M444.05,463.576c-0.1-0.455-0.318-0.812-0.658-1.074s-0.744-0.49-1.212-0.686
		c-0.467-0.197-0.972-0.393-1.515-0.588c-0.542-0.195-1.059-0.445-1.551-0.758c-0.492-0.309-0.933-0.705-1.319-1.188
		c-0.39-0.48-0.667-1.113-0.839-1.896c-0.157-0.727-0.182-1.365-0.07-1.918c0.109-0.553,0.322-1.033,0.637-1.436
		c0.314-0.404,0.719-0.738,1.213-1.002c0.493-0.266,1.039-0.461,1.638-0.592c0.726-0.158,1.416-0.234,2.072-0.229
		c0.658,0.006,1.219,0.084,1.686,0.236L443.812,455c-0.279-0.117-0.673-0.195-1.181-0.234c-0.509-0.037-1.038,0.002-1.594,0.123
		s-0.957,0.328-1.205,0.621c-0.25,0.293-0.326,0.66-0.23,1.102c0.087,0.398,0.299,0.721,0.637,0.969
		c0.336,0.246,0.738,0.467,1.205,0.664c0.469,0.197,0.975,0.395,1.519,0.596c0.543,0.203,1.062,0.463,1.555,0.781
		c0.494,0.314,0.937,0.719,1.325,1.207c0.39,0.49,0.667,1.109,0.831,1.865c0.164,0.754,0.196,1.432,0.098,2.033
		c-0.101,0.605-0.312,1.131-0.64,1.582c-0.326,0.451-0.754,0.832-1.283,1.141c-0.528,0.309-1.143,0.539-1.838,0.691
		c-0.883,0.191-1.673,0.273-2.371,0.248c-0.699-0.025-1.25-0.105-1.651-0.244l0.351-2.602c0.32,0.109,0.749,0.195,1.284,0.256
		c0.534,0.062,1.087,0.031,1.656-0.094C443.7,465.394,444.291,464.685,444.05,463.576z"/>
	<path fill="#B2AE96" d="M459.178,451.248l-3.521,0.768l2.716,12.463l-2.688,0.588l-2.716-12.465l-3.542,0.771l-0.54-2.475
		l9.753-2.125L459.178,451.248z"/>
	<path fill="#B2AE96" d="M463.677,447.675l7.469-1.627l0.54,2.475l-4.781,1.043l0.801,3.67l4.332-0.943l0.539,2.475l-4.332,0.945
		l0.837,3.842l4.865-1.061l0.54,2.475l-7.555,1.646L463.677,447.675z"/>
	<path fill="#B2AE96" d="M476.789,444.974c0.556-0.256,1.161-0.482,1.817-0.686c0.656-0.205,1.227-0.357,1.71-0.463
		c0.612-0.133,1.223-0.203,1.832-0.209c0.61-0.006,1.174,0.102,1.691,0.326c0.518,0.221,0.976,0.574,1.372,1.061
		c0.396,0.488,0.687,1.152,0.868,1.99c0.265,1.211,0.255,2.244-0.027,3.104c-0.281,0.859-0.783,1.518-1.504,1.973l1.003,0.494
		l3.999,5.119l-3.096,0.676l-3.887-5.322l-1.213-0.025l1.344,6.166l-2.688,0.586L476.789,444.974z M480.957,451.175l0.917-0.201
		c0.67-0.145,1.131-0.457,1.384-0.938s0.287-1.146,0.101-2c-0.14-0.639-0.396-1.133-0.769-1.477s-0.865-0.447-1.478-0.314
		c-0.229,0.051-0.447,0.104-0.657,0.166c-0.21,0.061-0.375,0.127-0.492,0.197L480.957,451.175z"/>
	<path fill="#B2AE96" d="M500.684,443.234c0.081,0.369,0.122,0.744,0.123,1.123c0,0.381-0.05,0.75-0.15,1.105
		c-0.1,0.357-0.265,0.688-0.487,0.99c-0.227,0.303-0.517,0.559-0.872,0.77l0.027,0.129c0.359,0.012,0.711,0.068,1.056,0.174
		c0.343,0.104,0.659,0.275,0.95,0.52c0.291,0.24,0.551,0.559,0.776,0.949c0.228,0.389,0.402,0.869,0.526,1.438
		c0.168,0.768,0.181,1.461,0.04,2.08c-0.143,0.621-0.396,1.156-0.768,1.609c-0.372,0.455-0.837,0.83-1.396,1.131
		c-0.561,0.301-1.175,0.525-1.845,0.672c-0.198,0.043-0.454,0.098-0.768,0.166c-0.312,0.068-0.653,0.131-1.021,0.189
		c-0.367,0.057-0.747,0.105-1.142,0.146c-0.394,0.041-0.763,0.055-1.108,0.041l-3.209-14.725c0.451-0.189,1.015-0.391,1.69-0.605
		c0.676-0.213,1.355-0.395,2.038-0.543c0.626-0.137,1.238-0.217,1.836-0.244c0.599-0.025,1.144,0.049,1.637,0.225
		c0.492,0.176,0.919,0.475,1.278,0.895C500.26,441.892,500.52,442.48,500.684,443.234z M496.086,447.253
		c0.155-0.035,0.336-0.084,0.536-0.15c0.201-0.066,0.363-0.129,0.484-0.186c0.379-0.246,0.676-0.578,0.89-0.998
		c0.215-0.418,0.26-0.912,0.136-1.48c-0.08-0.371-0.198-0.674-0.354-0.906c-0.155-0.234-0.335-0.408-0.538-0.521
		c-0.203-0.111-0.429-0.174-0.678-0.188s-0.509,0.01-0.778,0.068c-0.584,0.127-0.989,0.244-1.22,0.354l0.902,4.141L496.086,447.253z
		 M498.223,453.583c0.598-0.131,1.047-0.43,1.347-0.898c0.301-0.467,0.37-1.07,0.209-1.811c-0.103-0.471-0.247-0.83-0.436-1.078
		c-0.189-0.25-0.406-0.426-0.652-0.529c-0.245-0.102-0.512-0.146-0.799-0.129c-0.286,0.02-0.579,0.062-0.878,0.125l-1.088,0.238
		l0.925,4.246c0.123,0.018,0.325,0.008,0.606-0.031C497.74,453.677,497.996,453.632,498.223,453.583z"/>
	<path fill="#B2AE96" d="M505.759,438.507l7.469-1.629l0.54,2.475l-4.781,1.043l0.801,3.67l4.332-0.943l0.539,2.477l-4.332,0.943
		l0.837,3.842l4.865-1.061l0.54,2.475l-7.555,1.646L505.759,438.507z"/>
	<path fill="#B2AE96" d="M518.871,435.804c0.556-0.254,1.161-0.482,1.817-0.686s1.227-0.357,1.71-0.463
		c0.612-0.133,1.223-0.201,1.832-0.209c0.61-0.006,1.174,0.102,1.691,0.324c0.519,0.223,0.976,0.576,1.372,1.064
		c0.396,0.486,0.687,1.15,0.868,1.988c0.265,1.211,0.255,2.244-0.027,3.104c-0.281,0.859-0.783,1.518-1.504,1.973l1.003,0.494
		l3.999,5.119l-3.096,0.676l-3.887-5.322l-1.213-0.025l1.344,6.166l-2.688,0.586L518.871,435.804z M523.039,442.005l0.917-0.201
		c0.67-0.145,1.131-0.457,1.384-0.938s0.286-1.146,0.101-2c-0.14-0.641-0.396-1.131-0.768-1.477
		c-0.374-0.342-0.866-0.447-1.479-0.314c-0.229,0.051-0.447,0.104-0.657,0.166s-0.375,0.127-0.492,0.195L523.039,442.005z"/>
	<path fill="#B2AE96" d="M539.018,438.816l4.609-1.006l1.44,6.615c-0.418,0.613-0.954,1.105-1.61,1.48
		c-0.655,0.373-1.332,0.637-2.029,0.789c-0.84,0.182-1.633,0.197-2.381,0.049c-0.748-0.15-1.431-0.49-2.043-1.02
		c-0.615-0.527-1.161-1.252-1.637-2.172c-0.476-0.916-0.861-2.057-1.16-3.424c-0.31-1.422-0.414-2.658-0.315-3.707
		c0.099-1.051,0.341-1.941,0.726-2.674s0.892-1.312,1.521-1.74c0.63-0.426,1.329-0.725,2.097-0.893
		c0.685-0.148,1.318-0.225,1.907-0.227c0.589,0,1.084,0.037,1.488,0.113l-0.049,2.447c-0.312-0.066-0.666-0.104-1.062-0.105
		s-0.863,0.055-1.404,0.172c-0.498,0.109-0.927,0.309-1.289,0.596c-0.362,0.285-0.636,0.674-0.819,1.16
		c-0.185,0.488-0.277,1.088-0.28,1.793c-0.002,0.711,0.1,1.533,0.304,2.473c0.396,1.807,0.957,3.078,1.691,3.812
		c0.732,0.734,1.549,1.002,2.445,0.809c0.283-0.062,0.549-0.164,0.793-0.309c0.243-0.145,0.444-0.332,0.604-0.562l-0.673-3.088
		l-2.527,0.199L539.018,438.816z"/>
</g>
</svg>
