<?xml version="1.0" encoding="utf-8"?>
<!-- Generator: Adobe Illustrator 16.0.0, SVG Export Plug-In . SVG Version: 6.00 Build 0)  -->
<!DOCTYPE svg PUBLIC "-//W3C//DTD SVG 1.1//EN" "http://www.w3.org/Graphics/SVG/1.1/DTD/svg11.dtd">
<svg version="1.1" id="Layer_1" xmlns="http://www.w3.org/2000/svg" xmlns:xlink="http://www.w3.org/1999/xlink" x="0px" y="0px"
	 width="1224.281px" height="841.89px" viewBox="0 0 1224.281 841.89" enable-background="new 0 0 1224.281 841.89"
	 xml:space="preserve">
<rect fill="#105B63" width="1224.281" height="841.89"/>
<path fill="#BF8530" d="M591.384,367.56c3.423-0.023,6.197,3.827,6.206,8.585c0.021,4.729-2.78,8.559-6.193,8.562l0,0
	c4.728,0,8.604-3.832,8.578-8.562C599.96,371.387,596.124,367.536,591.384,367.56z"/>
<g>
	<g>
		<path fill="none" stroke="#DB9E36" stroke-width="3" stroke-linecap="round" stroke-linejoin="round" stroke-dasharray="2,6" d="
			M558.895,432.75v-43.807c0,0,1.523-12.81,10.348-12.81h13.556"/>
	</g>
</g>
<path fill="#B2AE96" d="M647.025,373.197l5.448-0.668l-1.213-6.652c0,0-4.608,1.402-18.895,1.402
	c-13.549,0-39.274-5.526-39.274-5.526l-1.239,6.137l26.313,5.312l-0.01,0.059c-0.375,1.906-0.351,3.801,0.01,5.601v0.001
	c0.002,0.009,0.004,0.018,0.006,0.026c0.018,0.086,0.037,0.171,0.057,0.257c0.773,3.641,2.902,6.839,6.07,8.93
	c0.363,0.24,0.736,0.459,1.115,0.665c0.002,0.001,0.004,0.003,0.008,0.004c0.146,0.079,0.293,0.153,0.441,0.228
	c0.09,0.044,0.178,0.09,0.27,0.133c0.082,0.039,0.166,0.076,0.248,0.113c0.148,0.067,0.297,0.134,0.449,0.196
	c0.045,0.019,0.09,0.035,0.133,0.053c0.184,0.073,0.365,0.144,0.551,0.209c0.033,0.011,0.066,0.022,0.099,0.033
	c0.19,0.066,0.385,0.13,0.58,0.188c0.047,0.014,0.096,0.025,0.143,0.039c0.176,0.052,0.352,0.102,0.531,0.146
	c0.094,0.022,0.188,0.043,0.283,0.063c0.11,0.025,0.221,0.054,0.331,0.076c0.021,0.004,0.046,0.007,0.066,0.013
	c0.15,0.028,0.303,0.055,0.455,0.079c0.076,0.014,0.15,0.027,0.227,0.039c0.216,0.032,0.431,0.06,0.646,0.082
	c0.014,0.001,0.025,0.003,0.039,0.004c1.471,0.151,2.973,0.086,4.465-0.21c7.924-1.567,13.154-9.181,11.658-16.971L647.025,373.197z
	"/>
<g>
	<path fill="#FFFAD5" d="M591.389,390.573c-7.93,0-14.415-6.454-14.459-14.386v-0.077c0.043-7.95,6.516-14.417,14.43-14.417
		c7.987,0,14.457,6.474,14.477,14.434c0.021,3.826-1.466,7.447-4.186,10.182C598.911,389.059,595.268,390.573,591.389,390.573z"/>
	<path fill="#DB9E36" d="M591.389,384.706c-4.727,0-8.568-3.826-8.591-8.553c0.022-4.755,3.864-8.605,8.579-8.594
		c4.738-0.023,8.576,3.827,8.591,8.585C599.993,380.874,596.116,384.706,591.389,384.706z"/>
</g>
<path fill="#A57329" d="M591.377,367.56c-0.215,0-0.429,0.011-0.641,0.025c3.801,0.32,6.794,4.027,6.806,8.56
	c0.021,4.51-3.006,8.2-6.806,8.533c0.216,0.018,0.433,0.028,0.652,0.028c4.728,0,8.604-3.832,8.579-8.562
	C599.953,371.387,596.115,367.536,591.377,367.56z"/>
<path fill="#FFFAD5" d="M674.902,430.046c-0.045-0.865-0.688-1.268-1.441-0.916l-13.641,5.963c-0.709,0.385-0.73,0.953-0.043,1.32
	l5.69,2.873c-4.707,4.631-10.824,8.836-18.088,11.938c-19.727,8.467-30.338,4.031-30.348-8.891
	c0.016-3.588,0.014-10.875,0.008-17.217c3.438,2.49,8.367,5.053,14.631,5.053c18.762,0.004,22.697-20.081,21.312-20.442
	c-1.479-0.385-3.752,5.521-9.096,5.521c-6.861,0-10.086-11.825-20.805-11.825c-8.504,0-11.095,6.78-11.658,6.78
	c-0.56,0-3.15-6.78-11.653-6.78c-10.716,0-13.946,11.825-20.805,11.825c-5.341,0-7.613-5.903-9.093-5.521
	c-1.385,0.36,2.551,20.442,21.311,20.442c7.089,0,12.472-3.283,15.914-6.023c-0.001,6.547-0.002,14.404,0.004,18.188
	c0.021,12.924-10.553,17.367-30.288,8.934c-7.271-3.111-13.432-7.307-18.098-11.926l5.648-2.885c0.753-0.373,0.743-0.973,0-1.312
	l-13.643-5.977c-0.788-0.328-1.377,0.066-1.377,0.906l0.021,15.871c-0.044,0.818,0.467,1.037,1.026,0.438l3.616-3.691
	c15.587,14.461,35.348,27.471,58.163,37.508c22.734-10.053,42.484-23.09,58.025-37.564l3.614,3.682
	c0.613,0.588,1.072,0.395,1.115-0.426L674.902,430.046z"/>
<path fill="#0D4444" d="M692.872,347.984c-10.8,0-19.562,6.851-19.562,15.303c0,3.745,1.727,7.173,4.582,9.832l-0.912,4.636
	c-0.771,4.142,0.646,4.861,3.947,2.811l4.478-3.139c2.301,0.749,4.82,1.161,7.467,1.161c10.803,0,19.56-6.854,19.56-15.303
	C712.431,354.833,703.675,347.984,692.872,347.984z"/>
<g>
	<path fill="#FFFAD5" d="M703.885,363.235c-0.272-0.019-0.574,0.087-0.831,0.212c-0.116,0.057-0.151,0.276-0.229,0.421
		c-0.542,1.011-1.251,1.868-2.282,2.411c-0.771,0.406-1.379,0.312-1.859-0.31c-0.638-0.821-0.856-1.779-0.854-2.909
		c0.304,0.042,0.523,0.077,0.744,0.101c0.808,0.083,1.579,0.048,2.277-0.465c1.939-1.421,2.101-4.639,0.261-6.18
		c-0.307-0.255-0.757-0.425-1.157-0.46c-1.502-0.132-2.451,0.743-3.141,1.938c-0.819,1.425-1.155,2.996-1.264,4.627
		c-0.077,1.166,0.023,2.29,0.622,3.32c0.812,1.397,1.927,2.248,3.648,2.045c2.136-0.251,3.917-2.358,4.323-4.182
		C704.181,363.633,703.988,363.242,703.885,363.235z M699.159,357.701c0.334-0.573,0.896-0.616,1.289-0.075
		c0.633,0.868,0.854,1.866,0.462,2.887c-0.45,1.172-1.354,1.481-2.882,1.065C698.223,360.235,698.464,358.899,699.159,357.701z"/>
	<path fill="#FFFAD5" d="M709.319,348.094c-0.703-0.259-1.263-0.062-1.576,0.618c-0.214,0.46-0.417,0.945-0.507,1.44
		c-0.519,2.83-1.041,5.658-1.479,8.502c-0.188,1.247-0.195,2.522-0.238,3.788c-0.007,0.204,0.219,0.571,0.365,0.588
		c0.227,0.024,0.578-0.127,0.698-0.316c0.198-0.314,0.315-0.712,0.362-1.088c0.438-3.61,1.671-6.928,3.575-10.016
		c0.259-0.417,0.352-0.938,0.521-1.409C710.969,349.327,710.279,348.448,709.319,348.094z"/>
	<path fill="#FFFAD5" d="M699.09,370.397c-1.16-1.269-2.526-2.236-4.142-2.594c-0.331-2.749-0.61-5.43-0.992-8.096
		c-0.163-1.144-0.495-2.27-0.828-3.38c-0.182-0.606-0.515-0.693-1.102-0.472c-0.891,0.336-1.206,0.973-0.915,1.971
		c0.41,1.411,0.86,2.81,1.281,4.218c0.058,0.188,0.12,0.429,0.052,0.591c-0.316,0.747-0.651,1.489-1.035,2.205
		c-0.24,0.449-0.668,0.659-1.194,0.541c-0.508-0.114-0.825-0.459-0.931-0.952c-0.084-0.396-0.153-0.814-0.114-1.213
		c0.21-2.151,0.452-4.301,0.69-6.451c0.092-0.83-0.107-1.218-0.83-1.284c-1.414-0.13-1.632-0.202-1.799,0.812
		c-0.277,1.688-0.53,3.395-0.579,5.099c-0.044,1.516-0.614,2.771-1.386,3.981c-0.31,0.486-0.809,0.384-1-0.171
		c-0.069-0.206-0.074-0.444-0.065-0.666c0.078-2.146,0.234-4.279,0.94-6.336c0.246-0.712,0.07-1.039-0.535-1.265
		c-0.724-0.268-1.03-0.143-1.354,0.545c-0.038,0.082-0.102,0.151-0.069,0.104c-0.598-0.284-1.106-0.646-1.669-0.763
		c-0.974-0.203-1.735,0.306-2.351,1.026c-0.843,0.989-1.312,2.164-1.581,3.414c-0.424,1.963-0.307,3.869,0.816,5.605
		c0.845,1.306,2.126,1.493,3.352,0.521c0.299-0.234,0.572-0.501,0.864-0.76c0.577,1.126,1.069,1.498,1.935,1.185
		c0.558-0.203,1.085-0.649,1.474-1.115c0.458-0.553,0.752-1.241,1.124-1.883c0.178,0.295,0.334,0.603,0.533,0.876
		c1.154,1.575,2.979,1.626,4.178,0.098c0.322-0.413,0.553-0.901,0.82-1.357c0.073-0.123,0.136-0.251,0.201-0.377
		c0.195,1.151,0.268,2.271,0.366,3.39c0.032,0.361-0.104,0.492-0.445,0.575c-0.65,0.157-1.3,0.347-1.932,0.572
		c-1.143,0.409-2.237,0.901-3.001,1.916c-0.95,1.267-0.69,2.871,0.614,3.752c1.169,0.79,2.452,0.842,3.766,0.533
		c2.015-0.475,3.365-1.657,2.857-4.179c-0.071-0.354-0.075-0.723-0.117-1.152c1.944,0.614,2.696,1.171,3.623,2.673
		c0.209,0.34,0.433,0.621,0.876,0.438c0.437-0.18,0.479-0.592,0.347-0.934C699.658,371.195,699.41,370.748,699.09,370.397z
		 M682.482,364.254c-0.038,0.897-0.54,1.52-1.202,2.031c-0.459,0.355-0.802,0.292-1.022-0.248c-0.229-0.559-0.397-1.159-0.479-1.756
		c-0.26-1.92,0.055-3.771,0.834-5.542c0.082-0.186,0.185-0.366,0.303-0.529c0.322-0.438,0.787-0.476,1.03,0.003
		c0.278,0.551,0.475,1.167,0.581,1.777c0.114,0.654,0.087,1.335,0.108,1.782C682.574,362.75,682.513,363.502,682.482,364.254z
		 M693.465,372.082c-0.012,0.684-0.336,1.121-1.051,1.319c-0.639,0.177-1.318,0.409-1.877-0.205
		c-0.452-0.499-0.536-1.266-0.177-1.879c0.65-1.113,1.71-1.621,3.105-1.985C693.467,370.34,693.476,371.211,693.465,372.082z"/>
	<path fill="#FFFAD5" d="M705.899,364.705c-0.729-0.026-1.382,0.441-1.527,1.234c-0.09,0.483-0.062,1.019,0.042,1.503
		c0.143,0.67,0.654,1.003,1.344,1.024c0.978,0.032,1.62-0.678,1.628-1.963c-0.002-0.038-0.001-0.244-0.038-0.443
		C707.206,365.296,706.594,364.73,705.899,364.705z"/>
</g>
</svg>
